<mxfile host="app.diagrams.net" modified="2022-05-13T12:46:23.253Z" agent="5.0 (Windows NT 10.0; Win64; x64) AppleWebKit/537.36 (KHTML, like Gecko) Chrome/101.0.4951.54 Safari/537.36" etag="oo8xBis5PQ2d8tNbNAJv" version="16.6.1" type="github">
  <diagram id="Gr6xsvsmgu8Cld1KlohD" name="Page-1">
    <mxGraphModel dx="1422" dy="705" grid="1" gridSize="10" guides="1" tooltips="1" connect="1" arrows="1" fold="1" page="1" pageScale="1" pageWidth="827" pageHeight="1169" math="0" shadow="0">
      <root>
        <mxCell id="0" />
        <mxCell id="1" parent="0" />
        <mxCell id="pHVrdgRIYseLeKDVqRc2-7" value="" style="edgeStyle=orthogonalEdgeStyle;rounded=0;orthogonalLoop=1;jettySize=auto;html=1;fontSize=212;fontColor=#F0F0F0F0;" edge="1" parent="1" target="pHVrdgRIYseLeKDVqRc2-6">
          <mxGeometry relative="1" as="geometry">
            <mxPoint x="414" y="185" as="sourcePoint" />
            <Array as="points">
              <mxPoint x="414" y="125" />
              <mxPoint x="414" y="125" />
            </Array>
          </mxGeometry>
        </mxCell>
        <mxCell id="pHVrdgRIYseLeKDVqRc2-13" value="" style="edgeStyle=orthogonalEdgeStyle;rounded=0;orthogonalLoop=1;jettySize=auto;html=1;fontSize=212;fontColor=#F0F0F0F0;" edge="1" parent="1" target="pHVrdgRIYseLeKDVqRc2-12">
          <mxGeometry relative="1" as="geometry">
            <mxPoint x="414" y="185" as="sourcePoint" />
          </mxGeometry>
        </mxCell>
        <mxCell id="pHVrdgRIYseLeKDVqRc2-16" style="edgeStyle=orthogonalEdgeStyle;rounded=0;orthogonalLoop=1;jettySize=auto;html=1;exitX=0.5;exitY=0;exitDx=0;exitDy=0;fontSize=212;fontColor=#F0F0F0F0;" edge="1" parent="1">
          <mxGeometry relative="1" as="geometry">
            <mxPoint x="414" y="186" as="sourcePoint" />
            <mxPoint x="270" y="126" as="targetPoint" />
            <Array as="points">
              <mxPoint x="414" y="185" />
              <mxPoint x="270" y="185" />
            </Array>
          </mxGeometry>
        </mxCell>
        <mxCell id="pHVrdgRIYseLeKDVqRc2-24" style="edgeStyle=orthogonalEdgeStyle;rounded=0;orthogonalLoop=1;jettySize=auto;html=1;fontSize=212;fontColor=#F0F0F0F0;" edge="1" parent="1" source="pHVrdgRIYseLeKDVqRc2-5" target="pHVrdgRIYseLeKDVqRc2-14">
          <mxGeometry relative="1" as="geometry" />
        </mxCell>
        <mxCell id="pHVrdgRIYseLeKDVqRc2-5" value="&lt;h1&gt;esp-32&lt;/h1&gt;" style="rounded=1;whiteSpace=wrap;html=1;labelBackgroundColor=#000000;fontColor=#F0F0F0F0;fillColor=#000000;" vertex="1" parent="1">
          <mxGeometry x="304" y="210" width="220" height="110" as="geometry" />
        </mxCell>
        <mxCell id="pHVrdgRIYseLeKDVqRc2-6" value="LiquidCrystal_I2C" style="whiteSpace=wrap;html=1;fillColor=#000000;fontColor=#F0F0F0F0;rounded=1;labelBackgroundColor=#000000;" vertex="1" parent="1">
          <mxGeometry x="354" y="20" width="120" height="60" as="geometry" />
        </mxCell>
        <mxCell id="pHVrdgRIYseLeKDVqRc2-12" value="Red_Led" style="ellipse;whiteSpace=wrap;html=1;fillColor=#000000;fontColor=#F0F0F0F0;rounded=1;labelBackgroundColor=#000000;" vertex="1" parent="1">
          <mxGeometry x="500" y="55" width="120" height="60" as="geometry" />
        </mxCell>
        <mxCell id="pHVrdgRIYseLeKDVqRc2-14" value="Blue led" style="ellipse;whiteSpace=wrap;html=1;fillColor=#000000;fontColor=#F0F0F0F0;rounded=1;labelBackgroundColor=#000000;" vertex="1" parent="1">
          <mxGeometry x="354" y="85" width="120" height="60" as="geometry" />
        </mxCell>
        <mxCell id="pHVrdgRIYseLeKDVqRc2-15" value="Green_led" style="ellipse;whiteSpace=wrap;html=1;fillColor=#000000;fontColor=#F0F0F0F0;rounded=1;labelBackgroundColor=#000000;" vertex="1" parent="1">
          <mxGeometry x="210" y="60" width="120" height="60" as="geometry" />
        </mxCell>
        <mxCell id="pHVrdgRIYseLeKDVqRc2-21" style="edgeStyle=orthogonalEdgeStyle;rounded=0;orthogonalLoop=1;jettySize=auto;html=1;entryX=0.5;entryY=0;entryDx=0;entryDy=0;fontSize=212;fontColor=#F0F0F0F0;" edge="1" parent="1" source="pHVrdgRIYseLeKDVqRc2-17" target="pHVrdgRIYseLeKDVqRc2-18">
          <mxGeometry relative="1" as="geometry" />
        </mxCell>
        <mxCell id="pHVrdgRIYseLeKDVqRc2-22" style="edgeStyle=orthogonalEdgeStyle;rounded=0;orthogonalLoop=1;jettySize=auto;html=1;entryX=0.5;entryY=0;entryDx=0;entryDy=0;fontSize=212;fontColor=#F0F0F0F0;" edge="1" parent="1" source="pHVrdgRIYseLeKDVqRc2-17" target="pHVrdgRIYseLeKDVqRc2-20">
          <mxGeometry relative="1" as="geometry" />
        </mxCell>
        <mxCell id="pHVrdgRIYseLeKDVqRc2-25" style="edgeStyle=orthogonalEdgeStyle;rounded=0;orthogonalLoop=1;jettySize=auto;html=1;fontSize=212;fontColor=#F0F0F0F0;" edge="1" parent="1" source="pHVrdgRIYseLeKDVqRc2-17">
          <mxGeometry relative="1" as="geometry">
            <mxPoint x="414" y="510" as="targetPoint" />
          </mxGeometry>
        </mxCell>
        <mxCell id="pHVrdgRIYseLeKDVqRc2-17" value="" style="sketch=0;pointerEvents=1;shadow=0;dashed=0;html=1;strokeColor=none;fillColor=#434445;aspect=fixed;labelPosition=center;verticalLabelPosition=bottom;verticalAlign=top;align=center;outlineConnect=0;shape=mxgraph.vvd.wi_fi;labelBackgroundColor=#000000;fontSize=212;fontColor=#F0F0F0F0;rotation=135;" vertex="1" parent="1">
          <mxGeometry x="364" y="340" width="100" height="100" as="geometry" />
        </mxCell>
        <mxCell id="pHVrdgRIYseLeKDVqRc2-18" value="&lt;h1&gt;Three&#39;s phone&lt;/h1&gt;" style="rounded=1;whiteSpace=wrap;html=1;labelBackgroundColor=#000000;fontColor=#F0F0F0F0;fillColor=#000000;" vertex="1" parent="1">
          <mxGeometry x="570" y="520" width="220" height="110" as="geometry" />
        </mxCell>
        <mxCell id="pHVrdgRIYseLeKDVqRc2-19" value="&lt;h1&gt;Second phone&lt;/h1&gt;" style="rounded=1;whiteSpace=wrap;html=1;labelBackgroundColor=#000000;fontColor=#F0F0F0F0;fillColor=#000000;" vertex="1" parent="1">
          <mxGeometry x="314" y="520" width="220" height="110" as="geometry" />
        </mxCell>
        <mxCell id="pHVrdgRIYseLeKDVqRc2-20" value="&lt;h1&gt;First phone&lt;/h1&gt;" style="rounded=1;whiteSpace=wrap;html=1;labelBackgroundColor=#000000;fontColor=#F0F0F0F0;fillColor=#000000;" vertex="1" parent="1">
          <mxGeometry x="50" y="520" width="220" height="110" as="geometry" />
        </mxCell>
      </root>
    </mxGraphModel>
  </diagram>
</mxfile>
